<svg width="1501" height="500" viewBox="0 0 1501 500" fill="none" xmlns="http://www.w3.org/2000/svg">
<rect width="1500" height="500" fill="white"/>
<rect width="1500" height="500" fill="url(#paint0_linear)"/>
<path d="M297.203 365.793C100.899 377.311 14.4855 447.419 0 500H1500V325.731C1466.03 298.189 1393.26 266.102 1187.31 325.731C1048.95 365.793 1004 412.365 796.703 428.891C589.411 445.416 542.667 351.391 297.203 365.793Z" fill="white"/>
<path d="M188.644 99.376C198.244 99.376 205.972 102.256 211.828 108.016C217.78 113.776 220.756 122.32 220.756 133.648V178H198.292V137.104C198.292 130.96 196.948 126.4 194.26 123.424C191.572 120.352 187.684 118.816 182.596 118.816C176.932 118.816 172.42 120.592 169.06 124.144C165.7 127.6 164.02 132.784 164.02 139.696V178H141.556V71.152H164.02V108.592C166.996 105.616 170.596 103.36 174.82 101.824C179.044 100.192 183.652 99.376 188.644 99.376ZM280.986 161.152C285.018 161.152 288.57 160.576 291.642 159.424C294.81 158.176 297.738 156.256 300.426 153.664L312.378 166.624C305.082 174.976 294.426 179.152 280.41 179.152C271.674 179.152 263.946 177.472 257.226 174.112C250.506 170.656 245.322 165.904 241.674 159.856C238.026 153.808 236.202 146.944 236.202 139.264C236.202 131.68 237.978 124.864 241.53 118.816C245.178 112.672 250.122 107.92 256.362 104.56C262.698 101.104 269.802 99.376 277.674 99.376C285.066 99.376 291.786 100.96 297.834 104.128C303.882 107.2 308.682 111.712 312.234 117.664C315.882 123.52 317.706 130.48 317.706 138.544L260.394 149.632C262.026 153.472 264.57 156.352 268.026 158.272C271.578 160.192 275.898 161.152 280.986 161.152ZM277.674 116.368C272.01 116.368 267.402 118.192 263.85 121.84C260.298 125.488 258.426 130.528 258.234 136.96L295.962 129.616C294.906 125.584 292.746 122.368 289.482 119.968C286.218 117.568 282.282 116.368 277.674 116.368ZM410.854 100.528V165.04C410.854 179.248 407.254 189.808 400.054 196.72C392.854 203.632 382.39 207.088 368.662 207.088C361.366 207.088 354.454 206.176 347.926 204.352C341.494 202.528 336.07 199.888 331.654 196.432L340.582 180.304C343.846 182.992 347.83 185.104 352.534 186.64C357.238 188.176 361.99 188.944 366.79 188.944C374.278 188.944 379.75 187.216 383.206 183.76C386.662 180.304 388.39 175.024 388.39 167.92V165.328C385.51 168.208 382.102 170.416 378.166 171.952C374.23 173.488 370.006 174.256 365.494 174.256C355.318 174.256 347.254 171.376 341.302 165.616C335.35 159.76 332.374 151.024 332.374 139.408V100.528H354.838V136.096C354.838 148.672 360.07 154.96 370.534 154.96C375.91 154.96 380.23 153.232 383.494 149.776C386.758 146.224 388.39 140.992 388.39 134.08V100.528H410.854ZM440.305 151.216C444.337 151.216 447.649 152.512 450.241 155.104C452.833 157.6 454.129 160.912 454.129 165.04C454.129 166.96 453.889 168.88 453.409 170.8C452.929 172.72 451.873 175.6 450.241 179.44L442.033 200.176H427.777L434.113 177.28C431.713 176.32 429.793 174.784 428.353 172.672C427.009 170.464 426.337 167.92 426.337 165.04C426.337 160.912 427.633 157.6 430.225 155.104C432.913 152.512 436.273 151.216 440.305 151.216ZM510.134 100.528H532.598V178H510.134V100.528ZM521.366 89.728C517.238 89.728 513.878 88.528 511.286 86.128C508.694 83.728 507.398 80.752 507.398 77.2C507.398 73.648 508.694 70.672 511.286 68.272C513.878 65.872 517.238 64.672 521.366 64.672C525.494 64.672 528.854 65.824 531.446 68.128C534.038 70.432 535.334 73.312 535.334 76.768C535.334 80.512 534.038 83.632 531.446 86.128C528.854 88.528 525.494 89.728 521.366 89.728ZM562.086 70C566.118 70 569.43 71.296 572.022 73.888C574.614 76.384 575.91 79.696 575.91 83.824C575.91 85.744 575.67 87.664 575.19 89.584C574.71 91.504 573.702 94.384 572.166 98.224L563.814 118.96H549.558L555.75 96.208C553.35 95.152 551.478 93.568 550.134 91.456C548.79 89.344 548.118 86.8 548.118 83.824C548.118 79.696 549.414 76.384 552.006 73.888C554.694 71.296 558.054 70 562.086 70ZM690.35 99.376C700.046 99.376 707.726 102.256 713.39 108.016C719.15 113.68 722.03 122.224 722.03 133.648V178H699.566V137.104C699.566 130.96 698.27 126.4 695.678 123.424C693.182 120.352 689.582 118.816 684.878 118.816C679.598 118.816 675.422 120.544 672.35 124C669.278 127.36 667.742 132.4 667.742 139.12V178H645.278V137.104C645.278 124.912 640.382 118.816 630.59 118.816C625.406 118.816 621.278 120.544 618.206 124C615.134 127.36 613.598 132.4 613.598 139.12V178H591.134V100.528H612.59V109.456C615.47 106.192 618.974 103.696 623.102 101.968C627.326 100.24 631.934 99.376 636.926 99.376C642.398 99.376 647.342 100.48 651.758 102.688C656.174 104.8 659.726 107.92 662.414 112.048C665.582 108.016 669.566 104.896 674.366 102.688C679.262 100.48 684.59 99.376 690.35 99.376ZM852.642 126.016H873.954V178H856.386V171.952C849.378 177.136 840.354 179.728 829.314 179.728C820.002 179.728 811.458 177.712 803.682 173.68C795.906 169.648 789.714 163.792 785.106 156.112C780.498 148.336 778.194 139.12 778.194 128.464C778.194 118.192 780.546 109.072 785.25 101.104C790.05 93.04 796.674 86.752 805.122 82.24C813.57 77.728 823.074 75.472 833.634 75.472C842.466 75.472 850.482 76.96 857.682 79.936C864.882 82.912 870.93 87.232 875.826 92.896L860.85 106.72C853.65 99.136 844.962 95.344 834.786 95.344C828.354 95.344 822.642 96.736 817.65 99.52C812.658 102.208 808.77 106.048 805.986 111.04C803.202 116.032 801.81 121.792 801.81 128.32C801.81 135.136 803.154 140.944 805.842 145.744C808.626 150.544 812.322 154.192 816.93 156.688C821.538 159.088 826.578 160.288 832.05 160.288C840.21 160.288 847.074 157.984 852.642 153.376V126.016ZM972.664 100.528V178H951.208V169.072C945.64 175.792 937.576 179.152 927.016 179.152C919.72 179.152 913.096 177.52 907.144 174.256C901.288 170.992 896.68 166.336 893.32 160.288C889.96 154.24 888.28 147.232 888.28 139.264C888.28 131.296 889.96 124.288 893.32 118.24C896.68 112.192 901.288 107.536 907.144 104.272C913.096 101.008 919.72 99.376 927.016 99.376C936.904 99.376 944.632 102.496 950.2 108.736V100.528H972.664ZM930.904 160.72C936.568 160.72 941.272 158.8 945.016 154.96C948.76 151.024 950.632 145.792 950.632 139.264C950.632 132.736 948.76 127.552 945.016 123.712C941.272 119.776 936.568 117.808 930.904 117.808C925.144 117.808 920.392 119.776 916.648 123.712C912.904 127.552 911.032 132.736 911.032 139.264C911.032 145.792 912.904 151.024 916.648 154.96C920.392 158.8 925.144 160.72 930.904 160.72ZM1071.51 100.528V178H1050.2V168.784C1047.22 172.144 1043.67 174.736 1039.54 176.56C1035.41 178.288 1030.95 179.152 1026.15 179.152C1015.97 179.152 1007.91 176.224 1001.96 170.368C996.006 164.512 993.03 155.824 993.03 144.304V100.528H1015.49V140.992C1015.49 153.472 1020.73 159.712 1031.19 159.712C1036.57 159.712 1040.89 157.984 1044.15 154.528C1047.41 150.976 1049.05 145.744 1049.05 138.832V100.528H1071.51ZM1113.78 110.752C1116.47 107.008 1120.07 104.176 1124.58 102.256C1129.19 100.336 1134.47 99.376 1140.42 99.376V120.112C1137.92 119.92 1136.24 119.824 1135.38 119.824C1128.95 119.824 1123.91 121.648 1120.26 125.296C1116.61 128.848 1114.79 134.224 1114.79 141.424V178H1092.32V100.528H1113.78V110.752ZM1231.7 100.528V178H1210.24V169.072C1204.67 175.792 1196.61 179.152 1186.05 179.152C1178.75 179.152 1172.13 177.52 1166.18 174.256C1160.32 170.992 1155.71 166.336 1152.35 160.288C1148.99 154.24 1147.31 147.232 1147.31 139.264C1147.31 131.296 1148.99 124.288 1152.35 118.24C1155.71 112.192 1160.32 107.536 1166.18 104.272C1172.13 101.008 1178.75 99.376 1186.05 99.376C1195.94 99.376 1203.66 102.496 1209.23 108.736V100.528H1231.7ZM1189.94 160.72C1195.6 160.72 1200.3 158.8 1204.05 154.96C1207.79 151.024 1209.66 145.792 1209.66 139.264C1209.66 132.736 1207.79 127.552 1204.05 123.712C1200.3 119.776 1195.6 117.808 1189.94 117.808C1184.18 117.808 1179.42 119.776 1175.68 123.712C1171.94 127.552 1170.06 132.736 1170.06 139.264C1170.06 145.792 1171.94 151.024 1175.68 154.96C1179.42 158.8 1184.18 160.72 1189.94 160.72ZM1329.39 100.528L1296.7 178H1273.52L1240.97 100.528H1264.16L1285.61 153.232L1307.79 100.528H1329.39ZM1335.68 77.2H1362.46L1358 143.008H1340.14L1335.68 77.2ZM1349.07 179.152C1345.13 179.152 1341.82 177.904 1339.13 175.408C1336.54 172.816 1335.24 169.696 1335.24 166.048C1335.24 162.4 1336.54 159.376 1339.13 156.976C1341.72 154.48 1345.04 153.232 1349.07 153.232C1353.1 153.232 1356.41 154.48 1359 156.976C1361.6 159.376 1362.89 162.4 1362.89 166.048C1362.89 169.696 1361.55 172.816 1358.86 175.408C1356.27 177.904 1353 179.152 1349.07 179.152Z" fill="white"/>
<defs>
<linearGradient id="paint0_linear" x1="0" y1="0" x2="1500" y2="8.29995e-06" gradientUnits="userSpaceOnUse">
<stop stop-color="#8E2DE2"/>
<stop offset="0.986378" stop-color="#4A00E0" stop-opacity="0.84"/>
</linearGradient>
</defs>
</svg>
