<svg width="32" height="32" viewBox="0 0 32 32" fill="none" xmlns="http://www.w3.org/2000/svg">
<circle cx="16" cy="16" r="16" fill="black"/>
<path d="M15.5 6C10.2513 6 6 10.3616 6 15.7412C6 20.046 8.72175 23.6965 12.4956 24.9832C12.9706 25.0749 13.1448 24.7737 13.1448 24.5148C13.1448 24.2834 13.1369 23.6705 13.1329 22.8588C10.4903 23.4465 9.933 21.5518 9.933 21.5518C9.50075 20.4275 8.87612 20.1272 8.87612 20.1272C8.01558 19.5232 8.94263 19.5354 8.94263 19.5354C9.89658 19.6036 10.3977 20.5387 10.3977 20.5387C11.2448 22.0283 12.6215 21.5981 13.1646 21.3489C13.2501 20.719 13.4947 20.2895 13.7663 20.046C11.6565 19.8025 9.439 18.9647 9.439 15.2322C9.439 14.1688 9.80713 13.3002 10.4167 12.6183C10.3098 12.3724 9.98921 11.382 10.4998 10.0402C10.4998 10.0402 11.2955 9.77878 13.1123 11.0386C13.8723 10.8219 14.6798 10.7147 15.4873 10.7099C16.2948 10.7147 17.1023 10.8219 17.8623 11.0386C19.6673 9.77878 20.463 10.0402 20.463 10.0402C20.9736 11.382 20.653 12.3724 20.558 12.6183C21.1636 13.3002 21.5317 14.1688 21.5317 15.2322C21.5317 18.9745 19.3111 19.7984 17.1973 20.0379C17.5298 20.3301 17.8386 20.9276 17.8386 21.84C17.8386 23.1437 17.8267 24.1909 17.8267 24.5075C17.8267 24.7632 17.993 25.0676 18.4798 24.9702C22.2806 23.6925 25 20.0395 25 15.7412C25 10.3616 20.7464 6 15.5 6" fill="white"/>
</svg>
