<svg width="32" height="32" viewBox="0 0 32 32" fill="none" xmlns="http://www.w3.org/2000/svg">
<circle cx="16" cy="16" r="16" fill="#0A66C2"/>
<path d="M9.75329 25H5.35076V12.3147H9.75329V25ZM7.54966 10.5843C6.14187 10.5843 5 9.54095 5 8.28132C5 7.67628 5.26862 7.09602 5.74678 6.66818C6.22493 6.24035 6.87345 6 7.54966 6C8.22587 6 8.87438 6.24035 9.35254 6.66818C9.83069 7.09602 10.0993 7.67628 10.0993 8.28132C10.0993 9.54095 8.95697 10.5843 7.54966 10.5843ZM26.2306 25H21.8375V18.8249C21.8375 17.3532 21.8043 15.4659 19.5485 15.4659C17.2596 15.4659 16.9088 17.0648 16.9088 18.7188V25H12.511V12.3147H16.7334V14.0451H16.7951C17.3828 13.0484 18.8186 11.9966 20.9606 11.9966C25.4162 11.9966 26.2353 14.6219 26.2353 18.0318V25H26.2306Z" fill="white"/>
</svg>
