<svg width="32" height="32" viewBox="0 0 32 32" fill="none" xmlns="http://www.w3.org/2000/svg">
<circle cx="16" cy="16" r="16" fill="#B92B27"/>
<path d="M17.1051 21.805C16.4244 20.5106 15.6266 19.2027 14.0679 19.2027C13.7714 19.2027 13.4724 19.251 13.2005 19.3682L12.6713 18.3477C13.3151 17.811 14.357 17.3867 15.6962 17.3867C17.78 17.3867 18.8505 18.3596 19.6999 19.597C20.202 18.5401 20.4404 17.1112 20.4404 15.3418C20.4404 10.9227 19.0119 8.65458 15.6717 8.65458C12.3806 8.65458 10.9562 10.9227 10.9562 15.3418C10.9562 19.7379 12.3806 21.9831 15.6717 21.9831C16.1959 21.9831 16.6709 21.9285 17.1051 21.805ZM17.9209 23.3463C17.1992 23.534 16.4326 23.6361 15.6741 23.6361C11.2904 23.6361 7 20.2565 7 15.341C7.00082 10.3812 11.2904 7 15.6741 7C20.1308 7 24.3793 10.3551 24.3793 15.3418C24.3793 18.1158 23.0401 20.3697 21.0948 21.8263C21.7206 22.7352 22.3587 23.3416 23.267 23.3416C24.2491 23.3416 24.6431 22.6172 24.7168 22.0361H25.9921C26.0675 22.8072 25.6629 26 22.0884 26C19.9162 26 18.7735 24.7903 17.9143 23.3653L17.9209 23.3463V23.3463Z" fill="white"/>
</svg>
