<svg width="32" height="32" viewBox="0 0 32 32" fill="none" xmlns="http://www.w3.org/2000/svg">
<circle cx="16" cy="16" r="16" fill="#1DA1F2"/>
<path d="M25.1624 9.14406C24.4436 9.50911 23.6821 9.75008 22.9024 9.8592C23.7233 9.29009 24.3379 8.39758 24.6328 7.3465C23.872 7.85864 23.0288 8.23144 22.1312 8.43906C21.539 7.70863 20.7543 7.22416 19.8989 7.06091C19.0435 6.89765 18.1654 7.06474 17.4007 7.53622C16.6361 8.0077 16.0279 8.75719 15.6704 9.66831C15.313 10.5794 15.2264 11.6012 15.424 12.5749C12.152 12.3968 9.2536 10.5836 7.312 7.8448C6.95904 8.5367 6.77493 9.32587 6.7792 10.1287C6.7792 11.7066 7.4752 13.0935 8.5296 13.9083C7.90469 13.8854 7.29358 13.6905 6.7472 13.3399V13.3953C6.74685 14.4439 7.06101 15.4604 7.63641 16.2722C8.2118 17.0841 9.01297 17.6414 9.904 17.8495C9.32664 18.0279 8.72193 18.0547 8.1344 17.9279C8.3873 18.8304 8.87813 19.6193 9.53841 20.1845C10.1987 20.7498 10.9955 21.0632 11.8176 21.081C10.4252 22.3415 8.70598 23.0256 6.936 23.0234C6.624 23.0234 6.3128 23.0022 6 22.9616C7.80457 24.2944 9.90281 25.0018 12.0456 25C19.288 25 23.244 18.0829 23.244 12.0951C23.244 11.9013 23.244 11.7075 23.232 11.5137C24.0048 10.8723 24.6714 10.0759 25.2 9.16251L25.1624 9.14406Z" fill="white"/>
</svg>
