<svg width="32" height="32" viewBox="0 0 32 32" fill="none" xmlns="http://www.w3.org/2000/svg">
<circle cx="16" cy="16" r="16" fill="#FF0000"/>
<path d="M24.6235 11.8742C24.5218 11.5117 24.3213 11.1809 24.042 10.9149C23.7626 10.6489 23.4144 10.457 23.032 10.3584C21.6287 10 16 10 16 10C16 10 10.3712 10 8.96725 10.3584C8.58506 10.4571 8.23697 10.6491 7.95781 10.9151C7.67865 11.1811 7.47819 11.5118 7.3765 11.8742C7 13.2111 7 16 7 16C7 16 7 18.7889 7.3765 20.1258C7.47819 20.4883 7.67873 20.8191 7.95804 21.0851C8.23736 21.3511 8.58563 21.543 8.968 21.6416C10.3713 22 16 22 16 22C16 22 21.6288 22 23.0328 21.6416C23.4152 21.5431 23.7635 21.3512 24.0428 21.0852C24.3221 20.8191 24.5226 20.4883 24.6243 20.1258C25 18.7889 25 16 25 16C25 16 25 13.2111 24.6235 11.8742ZM14.1588 18.532V13.468L18.8635 16L14.1588 18.532Z" fill="white"/>
</svg>
