<svg id="Layer_1" enable-background="new 0 0 512.011 512.011" height="512" viewBox="0 0 512.011 512.011" width="512" xmlns="http://www.w3.org/2000/svg"><g><g clip-rule="evenodd" fill-rule="evenodd"><g fill="#faf7f6"><path d="m398.172 88.719 20 11.547 20-11.547v-23.094l-20-11.547-20 11.547z"/><path d="m270.172 166.719v-23.095l-20-11.546-20 11.546v23.095l20 11.547z"/><path d="m357.172 253.078-20 11.547v23.094l20 11.547 20-11.547v-23.094z"/><path d="m121.249 433.318-20-11.547-15.66 9.042-4.339 2.505v23.094l19.999 11.547 17.343-10.012 2.657-1.535z"/></g><path d="m101.249 421.771 20 11.547v23.094l-2.658 1.534c40.346 27.787 89.238 44.058 141.93 44.058 56.554 0 108.754-18.767 150.715-50.417 42.936-32.385 75.118-78.274 90.235-131.352 1.494-5.265-.216-11.145-4.784-14.735-6.036-4.745-14.777-3.698-19.521 2.338-18.154 23.071-41.38 41.921-67.977 54.846-25.614 12.447-54.418 19.43-84.9 19.43-53.683 0-102.282-21.758-137.461-56.936-35.177-35.177-56.936-83.776-56.936-137.458 0-30.481 6.982-59.285 19.43-84.899 12.863-26.467 31.594-49.597 54.513-67.711 4.532-3.344 6.751-9.264 5.119-15-2.102-7.387-9.795-11.672-17.183-9.57-53.079 15.118-98.968 47.3-131.354 90.235-31.65 41.96-50.417 94.159-50.417 150.712 0 69.177 28.042 131.807 73.377 177.142.732.733 1.47 1.46 2.211 2.184z" fill="#ffc144"/></g><g><path d="m502.869 297.638c-5.019-3.945-11.273-5.7-17.614-4.941-6.339.759-12.003 3.942-15.946 8.958-17.25 21.922-39.549 39.916-64.489 52.035-25.157 12.225-52.25 18.424-80.529 18.424-49.255 0-95.562-19.18-130.39-54.007-34.827-34.826-54.007-81.131-54.007-130.386 0-28.278 6.199-55.372 18.424-80.528 12.038-24.771 29.881-46.95 51.61-64.15 7.868-5.904 11.341-16.193 8.646-25.669-3.607-12.678-16.854-20.059-29.541-16.451-38.926 11.087-75.302 31.54-105.196 59.146-4.057 3.747-4.309 10.074-.562 14.131 3.747 4.058 10.073 4.309 14.131.563 27.602-25.49 61.181-44.371 97.103-54.603 2.069-.59 4.239.616 4.828 2.688.513 1.802-.352 3.417-1.437 4.217-.089.065-.177.133-.264.201-24.125 19.068-43.941 43.683-57.307 71.186-13.561 27.903-20.436 57.938-20.436 89.27 0 54.597 21.261 105.925 59.865 144.529 38.605 38.604 89.934 59.865 144.532 59.865 31.333 0 61.368-6.875 89.271-20.436 27.644-13.434 52.355-33.371 71.468-57.66.869-1.105 2.004-1.391 2.604-1.462.6-.074 1.77-.063 2.876.807 1.52 1.195 1.674 2.979 1.346 4.134-14.212 49.9-44.981 94.686-86.64 126.108-41.979 31.664-92.013 48.401-144.693 48.401-46.155 0-90.669-13.001-129.272-37.667v-21.02c0-3.573-1.906-6.874-5-8.66l-20-11.547c-3.094-1.787-6.906-1.787-10 0l-8.983 5.186c-43.408-45.042-67.267-104.092-67.267-166.813 0-37.973 8.606-74.311 25.578-108.003 2.485-4.933.5-10.945-4.432-13.43s-10.945-.501-13.43 4.432c-18.391 36.509-27.716 75.874-27.716 117.001 0 67.318 25.365 130.737 71.57 179.35-.205.801-.32 1.632-.32 2.481v23.095c0 3.573 1.906 6.874 5 8.66l20 11.547c1.547.894 3.273 1.34 5 1.34s3.453-.446 5-1.34l11.954-6.902c42.347 27.68 91.415 42.287 142.318 42.287 57.062 0 111.261-18.131 156.737-52.434 45.111-34.027 78.435-82.538 93.833-136.605 2.66-9.37-.569-19.312-8.223-25.328zm-401.619 158.774-10-5.773v-11.548l10-5.773 10 5.773v11.548z"/><path d="m393.172 97.379 20 11.547c1.547.894 3.273 1.34 5 1.34s3.453-.446 5-1.34l20-11.547c3.094-1.786 5-5.087 5-8.66v-23.094c0-3.573-1.906-6.874-5-8.66l-20-11.547c-3.094-1.787-6.906-1.787-10 0l-20 11.547c-3.094 1.786-5 5.087-5 8.66v23.094c0 3.573 1.906 6.874 5 8.66zm15-25.981 10-5.773 10 5.773v11.547l-10 5.773-10-5.773z"/><path d="m327.172 264.625v23.094c0 3.573 1.906 6.874 5 8.66l20 11.547c1.547.894 3.273 1.34 5 1.34 1.726 0 3.453-.447 5-1.34l20-11.547c3.094-1.786 5-5.087 5-8.66v-23.094c0-3.573-1.906-6.874-5-8.66l-20-11.547c-3.094-1.787-6.906-1.786-10 0l-20 11.547c-3.094 1.786-5 5.087-5 8.66zm20 5.773 10-5.773 10 5.773v11.547l-10 5.773-10-5.773z"/><path d="m225.172 175.379 20 11.547c1.547.894 3.273 1.34 5 1.34s3.453-.447 5-1.34l20-11.547c3.094-1.786 5-5.087 5-8.66v-23.095c0-3.573-1.906-6.874-5-8.66l-20-11.547c-3.094-1.787-6.905-1.786-10 0l-20 11.547c-3.094 1.786-5 5.087-5 8.66v23.095c0 3.573 1.906 6.874 5 8.66zm15-25.981 10-5.773 10 5.773v11.548l-10 5.773-10-5.773z"/><path d="m84.171 284.493c5.523 0 10-4.477 10-10s-4.477-10-10-10h-.007c-5.523 0-9.997 4.477-9.997 10s4.481 10 10.004 10z"/><path d="m255.993 246.005c-5.523 0-9.997 4.477-9.997 10s4.481 10 10.004 10 10-4.477 10-10-4.477-10-10-10z"/><path d="m322.171 56.493c5.523 0 10-4.477 10-10s-4.477-10-10-10h-.007c-5.523 0-9.997 4.477-9.997 10s4.481 10 10.004 10z"/><path d="m422.164 166.493c-5.523 0-9.997 4.477-9.997 10s4.481 10 10.004 10 10-4.477 10-10-4.477-10-10-10z"/><path d="m240.171 426.493c0-5.523-4.477-10-10-10h-.007c-5.523 0-9.997 4.477-9.997 10s4.481 10 10.004 10 10-4.477 10-10z"/><path d="m60.426 110.775c5.523 0 10-4.477 10-10s-4.477-10-10-10h-.007c-5.523 0-9.996 4.477-9.996 10s4.48 10 10.003 10z"/></g></g></svg>