<?xml version="1.0" encoding="iso-8859-1"?>
<!-- Generator: Adobe Illustrator 19.0.0, SVG Export Plug-In . SVG Version: 6.00 Build 0)  -->
<svg version="1.1" id="Layer_1" xmlns="http://www.w3.org/2000/svg" xmlns:xlink="http://www.w3.org/1999/xlink" x="0px" y="0px"
	 viewBox="0 0 512.001 512.001" style="enable-background:new 0 0 512.001 512.001;" xml:space="preserve">
<path style="fill:#FF8749;" d="M501.926,256.005l-31.462,18.787c-24.908,14.88-33.476,46.866-19.33,72.207l17.86,32.006
	l-36.587,0.503c-29.046,0.403-52.494,23.861-52.896,52.906L379.008,469l-32.016-17.87c-25.331-14.135-57.316-5.568-72.196,19.34
	l-18.797,31.462l-18.797-31.462c-14.88-24.908-46.866-33.476-72.196-19.34L132.99,469l-0.503-36.587
	c-0.393-29.046-23.851-52.504-52.896-52.906l-36.587-0.503l17.86-32.006c14.145-25.341,5.578-57.326-19.33-72.207l-31.462-18.787
	l31.462-18.797c24.908-14.88,33.476-46.866,19.33-72.196l-17.86-32.016l36.587-0.503c29.046-0.403,52.504-23.851,52.896-52.907
	L132.99,43l32.016,17.87c25.331,14.145,57.316,5.578,72.196-19.33l18.797-31.472l18.797,31.472
	c14.88,24.908,46.866,33.476,72.196,19.33l32.016-17.86l0.503,36.576c0.403,29.056,23.851,52.504,52.896,52.907l36.587,0.503
	l-17.86,32.016c-14.145,25.331-5.578,57.316,19.33,72.196L501.926,256.005z M398.398,309.727
	c29.67-78.65-10.038-166.452-88.678-196.122s-166.452,10.028-196.122,88.678c-29.67,78.64,10.038,166.442,88.678,196.111
	S368.729,388.367,398.398,309.727z"/>
<path style="fill:#FFC365;" d="M309.721,113.605c78.64,29.67,118.347,117.472,88.678,196.122
	c-29.67,78.64-117.482,118.337-196.122,88.667S83.93,280.923,113.599,202.283C143.269,123.633,231.081,83.936,309.721,113.605z"/>
<path d="M313.276,104.185c-40.552-15.298-84.633-13.89-124.127,3.965c-39.495,17.856-69.67,50.025-84.969,90.578
	c-15.299,40.549-13.89,84.63,3.968,124.121c17.857,39.49,50.025,69.664,90.575,84.964c18.803,7.094,38.104,10.453,57.105,10.453
	c65.595,0,127.502-40.08,151.991-104.986l0,0C439.398,229.569,396.986,135.769,313.276,104.185z M388.979,306.173
	c-27.665,73.321-109.826,110.465-183.148,82.802c-35.518-13.401-63.694-39.83-79.336-74.42c-15.642-34.59-16.877-73.2-3.476-108.718
	c13.4-35.521,39.831-63.698,74.424-79.339c18.698-8.454,38.568-12.699,58.491-12.699c16.936,0,33.911,3.068,50.231,9.225
	C379.49,150.689,416.64,232.849,388.979,306.173z"/>
<path d="M340.05,179.821c-4.437,3.35-5.319,9.663-1.969,14.101c16.778,22.226,23.923,50.667,19.601,78.033
	c-0.867,5.493,2.882,10.648,8.374,11.516c0.532,0.084,1.061,0.125,1.583,0.125c4.868,0,9.149-3.539,9.932-8.498
	c5.169-32.735-3.368-66.743-23.42-93.306C350.803,177.353,344.49,176.468,340.05,179.821z"/>
<path d="M507.09,247.362l-31.462-18.797c-20.373-12.171-27.271-37.932-15.701-58.649l17.859-32.016
	c1.728-3.097,1.698-6.873-0.076-9.943c-1.775-3.07-5.033-4.98-8.579-5.029l-36.586-0.503c-23.764-0.33-42.64-19.208-42.97-42.979
	l-0.503-36.576c-0.049-3.545-1.958-6.804-5.029-8.578c-3.069-1.775-6.847-1.803-9.943-0.076L342.084,52.08
	c-20.717,11.568-46.474,4.668-58.645-15.703L264.642,4.905C262.825,1.864,259.543,0,255.999,0c-3.544,0-6.826,1.864-8.643,4.906
	L228.56,36.377c-12.171,20.372-37.932,27.27-58.646,15.703l-32.016-17.87c-3.097-1.728-6.873-1.7-9.944,0.075
	c-3.07,1.774-4.981,5.033-5.03,8.579l-0.503,36.59c-0.321,23.768-19.195,42.645-42.969,42.976l-36.587,0.503
	c-3.545,0.048-6.804,1.959-8.578,5.029c-1.775,3.07-1.803,6.847-0.076,9.943l17.862,32.019
	c11.567,20.715,4.669,46.474-15.704,58.645L4.909,247.364c-3.041,1.817-4.905,5.1-4.904,8.643c0,3.544,1.864,6.826,4.906,8.643
	l31.461,18.786c20.371,12.17,27.269,37.935,15.702,58.657l-17.86,32.006c-1.728,3.097-1.699,6.873,0.075,9.943
	c1.774,3.071,5.033,4.981,8.579,5.03l36.586,0.503c23.774,0.33,42.648,19.207,42.97,42.979l0.503,36.587
	c0.048,3.546,1.959,6.804,5.03,8.579c3.072,1.775,6.848,1.803,9.944,0.074l32.015-17.87c20.717-11.559,46.477-4.658,58.647,15.712
	l18.797,31.462c1.817,3.042,5.099,4.904,8.642,4.904s6.825-1.863,8.643-4.904l18.797-31.462
	c12.169-20.371,37.932-27.273,58.646-15.713l32.016,17.87c3.097,1.729,6.874,1.7,9.944-0.074c3.071-1.774,4.981-5.033,5.03-8.579
	l0.503-36.586c0.33-23.771,19.204-42.649,42.969-42.98l36.587-0.503c3.545-0.048,6.804-1.959,8.579-5.029
	c1.775-3.07,1.802-6.847,0.074-9.944l-17.86-32.008c-11.567-20.721-4.669-46.485,15.701-58.654l31.462-18.787
	c3.041-1.817,4.906-5.099,4.906-8.643C511.994,252.462,510.131,249.179,507.09,247.362z M465.3,266.148
	c-14.307,8.548-24.561,22.121-28.872,38.219c-4.311,16.1-2.21,32.982,5.914,47.536l9.634,17.264l-19.709,0.272
	c-16.683,0.232-32.37,6.859-44.17,18.661c-11.797,11.802-18.422,27.489-18.654,44.174l-0.272,19.706l-17.274-9.643
	c-14.551-8.12-31.433-10.218-47.528-5.904c-16.098,4.312-29.67,14.566-38.218,28.873l-10.153,16.996l-10.153-16.996
	c-8.547-14.306-22.12-24.56-38.217-28.873c-5.472-1.466-11.033-2.191-16.564-2.191c-10.739,0-21.36,2.735-30.966,8.096
	l-17.274,9.642l-0.272-19.703c-0.226-16.684-6.849-32.373-18.651-44.177c-11.801-11.802-27.488-18.429-44.174-18.661l-19.708-0.272
	l9.634-17.263c8.124-14.555,10.225-31.437,5.914-47.537c-4.311-16.098-14.564-29.672-28.874-38.221l-16.989-10.145l16.991-10.151
	c14.307-8.548,24.562-22.12,28.873-38.218c4.311-16.099,2.21-32.979-5.913-47.527l-9.638-17.275l19.711-0.272
	c16.686-0.232,32.373-6.857,44.173-18.657c11.803-11.803,18.426-27.492,18.651-44.179l0.272-19.706l17.272,9.641
	c14.55,8.126,31.43,10.226,47.529,5.915c16.097-4.311,29.671-14.564,38.219-28.874l10.152-17L266.151,46.7
	c8.548,14.307,22.121,24.562,38.219,28.873c16.098,4.309,32.978,2.211,47.526-5.913l17.275-9.638l0.272,19.701
	c0.231,16.688,6.857,32.377,18.655,44.177c11.797,11.8,27.484,18.425,44.17,18.657l19.71,0.272l-9.634,17.271
	c-8.126,14.551-10.227,31.431-5.916,47.53c4.31,16.097,14.564,29.67,28.872,38.217l16.991,10.151L465.3,266.148z"/>
<circle cx="318.938" cy="164.368" r="10.068"/>
<g>
</g>
<g>
</g>
<g>
</g>
<g>
</g>
<g>
</g>
<g>
</g>
<g>
</g>
<g>
</g>
<g>
</g>
<g>
</g>
<g>
</g>
<g>
</g>
<g>
</g>
<g>
</g>
<g>
</g>
</svg>
